  0
SECTION
  2
HEADER
  9
$ACADVER
  1
AC1024
  9
$ACADMAINTVER
 70
     6
  9
$DWGCODEPAGE
  3
ANSI_1252
  9
$INSBASE
 10
0.0
 20
0.0
 30
0.0
  9
$EXTMIN
 10
1.000000000000000E+20
 20
1.000000000000000E+20
 30
1.000000000000000E+20
  9
$EXTMAX
 10
-1.000000000000000E+20
 20
-1.000000000000000E+20
 30
-1.000000000000000E+20
  9
$LIMMIN
 10
0.0
 20
0.0
  9
$LIMMAX
 10
12.0
 20
9.0
  9
$ORTHOMODE
 70
     0
  9
$REGENMODE
 70
     1
  9
$FILLMODE
 70
     1
  9
$QTEXTMODE
 70
     0
  9
$MIRRTEXT
 70
     1
  9
$LTSCALE
 40
1.0
  9
$ATTMODE
 70
     1
  9
$TEXTSIZE
 40
0.2
  9
$TRACEWID
 40
0.05
  9
$TEXTSTYLE
  7
Standard
  9
$CLAYER
  8
0
  9
$CELTYPE
  6
ByLayer
  9
$CECOLOR
 62
   256
  9
$CELTSCALE
 40
1.0
  9
$DISPSILH
 70
     0
  9
$DIMSCALE
 40
1.0
  9
$DIMASZ
 40
0.18
  9
$DIMEXO
 40
0.0625
  9
$DIMDLI
 40
0.38
  9
$DIMRND
 40
0.0
  9
$DIMDLE
 40
0.0
  9
$DIMEXE
 40
0.18
  9
$DIMTP
 40
0.0
  9
$DIMTM
 40
0.0
  9
$DIMTXT
 40
0.18
  9
$DIMCEN
 40
0.09
  9
$DIMTSZ
 40
0.0
  9
$DIMTOL
 70
     0
  9
$DIMLIM
 70
     0
  9
$DIMTIH
 70
     1
  9
$DIMTOH
 70
     1
  9
$DIMSE1
 70
     0
  9
$DIMSE2
 70
     0
  9
$DIMTAD
 70
     0
  9
$DIMZIN
 70
     0
  9
$DIMBLK
  1

  9
$DIMASO
 70
     1
  9
$DIMSHO
 70
     1
  9
$DIMPOST
  1

  9
$DIMAPOST
  1

  9
$DIMALT
 70
     0
  9
$DIMALTD
 70
     2
  9
$DIMALTF
 40
25.4
  9
$DIMLFAC
 40
1.0
  9
$DIMTOFL
 70
     0
  9
$DIMTVP
 40
0.0
  9
$DIMTIX
 70
     0
  9
$DIMSOXD
 70
     0
  9
$DIMSAH
 70
     0
  9
$DIMBLK1
  1

  9
$DIMBLK2
  1

  9
$DIMSTYLE
  2
Standard
  9
$DIMCLRD
 70
     0
  9
$DIMCLRE
 70
     0
  9
$DIMCLRT
 70
     0
  9
$DIMTFAC
 40
1.0
  9
$DIMGAP
 40
0.09
  9
$DIMJUST
 70
     0
  9
$DIMSD1
 70
     0
  9
$DIMSD2
 70
     0
  9
$DIMTOLJ
 70
     1
  9
$DIMTZIN
 70
     0
  9
$DIMALTZ
 70
     0
  9
$DIMALTTZ
 70
     0
  9
$DIMUPT
 70
     0
  9
$DIMDEC
 70
     4
  9
$DIMTDEC
 70
     4
  9
$DIMALTU
 70
     2
  9
$DIMALTTD
 70
     2
  9
$DIMTXSTY
  7
Standard
  9
$DIMAUNIT
 70
     0
  9
$DIMADEC
 70
     0
  9
$DIMALTRND
 40
0.0
  9
$DIMAZIN
 70
     0
  9
$DIMDSEP
 70
    46
  9
$DIMATFIT
 70
     3
  9
$DIMFRAC
 70
     0
  9
$DIMLDRBLK
  1

  9
$DIMLUNIT
 70
     2
  9
$DIMLWD
 70
    -2
  9
$DIMLWE
 70
    -2
  9
$DIMTMOVE
 70
     0
  9
$DIMFXL
 40
1.0
  9
$DIMFXLON
 70
     0
  9
$DIMJOGANG
 40
0.7853981633974483
  9
$DIMTFILL
 70
     0
  9
$DIMTFILLCLR
 70
     0
  9
$DIMARCSYM
 70
     0
  9
$DIMLTYPE
  6

  9
$DIMLTEX1
  6

  9
$DIMLTEX2
  6

  9
$DIMTXTDIRECTION
 70
     0
  9
$LUNITS
 70
     2
  9
$LUPREC
 70
     4
  9
$SKETCHINC
 40
0.1
  9
$FILLETRAD
 40
0.5
  9
$AUNITS
 70
     0
  9
$AUPREC
 70
     0
  9
$MENU
  1
.
  9
$ELEVATION
 40
0.0
  9
$PELEVATION
 40
0.0
  9
$THICKNESS
 40
0.0
  9
$LIMCHECK
 70
     0
  9
$CHAMFERA
 40
0.5
  9
$CHAMFERB
 40
0.5
  9
$CHAMFERC
 40
1.0
  9
$CHAMFERD
 40
0.0
  9
$SKPOLY
 70
     0
  9
$TDCREATE
 40
2458831.866214711
  9
$TDUCREATE
 40
2458832.074548044
  9
$TDUPDATE
 40
2458831.866214884
  9
$TDUUPDATE
 40
2458832.074548217
  9
$TDINDWG
 40
0.0000000116
  9
$TDUSRTIMER
 40
0.0000000116
  9
$USRTIMER
 70
     1
  9
$ANGBASE
 50
0.0
  9
$ANGDIR
 70
     0
  9
$PDMODE
 70
     0
  9
$PDSIZE
 40
0.0
  9
$PLINEWID
 40
0.0
  9
$SPLFRAME
 70
     0
  9
$SPLINETYPE
 70
     6
  9
$SPLINESEGS
 70
     8
  9
$HANDSEED
  5
49
  9
$SURFTAB1
 70
     6
  9
$SURFTAB2
 70
     6
  9
$SURFTYPE
 70
     6
  9
$SURFU
 70
     6
  9
$SURFV
 70
     6
  9
$UCSBASE
  2

  9
$UCSNAME
  2

  9
$UCSORG
 10
0.0
 20
0.0
 30
0.0
  9
$UCSXDIR
 10
1.0
 20
0.0
 30
0.0
  9
$UCSYDIR
 10
0.0
 20
1.0
 30
0.0
  9
$UCSORTHOREF
  2

  9
$UCSORTHOVIEW
 70
     0
  9
$UCSORGTOP
 10
0.0
 20
0.0
 30
0.0
  9
$UCSORGBOTTOM
 10
0.0
 20
0.0
 30
0.0
  9
$UCSORGLEFT
 10
0.0
 20
0.0
 30
0.0
  9
$UCSORGRIGHT
 10
0.0
 20
0.0
 30
0.0
  9
$UCSORGFRONT
 10
0.0
 20
0.0
 30
0.0
  9
$UCSORGBACK
 10
0.0
 20
0.0
 30
0.0
  9
$PUCSBASE
  2

  9
$PUCSNAME
  2

  9
$PUCSORG
 10
0.0
 20
0.0
 30
0.0
  9
$PUCSXDIR
 10
1.0
 20
0.0
 30
0.0
  9
$PUCSYDIR
 10
0.0
 20
1.0
 30
0.0
  9
$PUCSORTHOREF
  2

  9
$PUCSORTHOVIEW
 70
     0
  9
$PUCSORGTOP
 10
0.0
 20
0.0
 30
0.0
  9
$PUCSORGBOTTOM
 10
0.0
 20
0.0
 30
0.0
  9
$PUCSORGLEFT
 10
0.0
 20
0.0
 30
0.0
  9
$PUCSORGRIGHT
 10
0.0
 20
0.0
 30
0.0
  9
$PUCSORGFRONT
 10
0.0
 20
0.0
 30
0.0
  9
$PUCSORGBACK
 10
0.0
 20
0.0
 30
0.0
  9
$USERI1
 70
     0
  9
$USERI2
 70
     0
  9
$USERI3
 70
     0
  9
$USERI4
 70
     0
  9
$USERI5
 70
     0
  9
$USERR1
 40
0.0
  9
$USERR2
 40
0.0
  9
$USERR3
 40
0.0
  9
$USERR4
 40
0.0
  9
$USERR5
 40
0.0
  9
$WORLDVIEW
 70
     1
  9
$SHADEDGE
 70
     3
  9
$SHADEDIF
 70
    70
  9
$TILEMODE
 70
     1
  9
$MAXACTVP
 70
    64
  9
$PINSBASE
 10
0.0
 20
0.0
 30
0.0
  9
$PLIMCHECK
 70
     0
  9
$PEXTMIN
 10
1.000000000000000E+20
 20
1.000000000000000E+20
 30
1.000000000000000E+20
  9
$PEXTMAX
 10
-1.000000000000000E+20
 20
-1.000000000000000E+20
 30
-1.000000000000000E+20
  9
$PLIMMIN
 10
0.0
 20
0.0
  9
$PLIMMAX
 10
12.0
 20
9.0
  9
$UNITMODE
 70
     0
  9
$VISRETAIN
 70
     1
  9
$PLINEGEN
 70
     0
  9
$PSLTSCALE
 70
     1
  9
$TREEDEPTH
 70
  3020
  9
$CMLSTYLE
  2
Standard
  9
$CMLJUST
 70
     0
  9
$CMLSCALE
 40
1.0
  9
$PROXYGRAPHICS
 70
     1
  9
$MEASUREMENT
 70
     0
  9
$CELWEIGHT
370
    -1
  9
$ENDCAPS
280
     0
  9
$JOINSTYLE
280
     0
  9
$LWDISPLAY
290
     1
  9
$INSUNITS
 70
     1
  9
$HYPERLINKBASE
  1

  9
$STYLESHEET
  1

  9
$XEDIT
290
     1
  9
$CEPSNTYPE
380
     0
  9
$PSTYLEMODE
290
     1
  9
$FINGERPRINTGUID
  2
{69DBCB76-029A-496D-A855-E9B0A01812E8}
  9
$VERSIONGUID
  2
{FAEB1C32-E019-11D5-929B-00C0DF256EC4}
  9
$EXTNAMES
290
     1
  9
$PSVPSCALE
 40
0.0
  9
$OLESTARTUP
290
     0
  9
$SORTENTS
280
   127
  9
$INDEXCTL
280
     0
  9
$HIDETEXT
280
     1
  9
$XCLIPFRAME
280
     2
  9
$HALOGAP
280
     0
  9
$OBSCOLOR
 70
   257
  9
$OBSLTYPE
280
     0
  9
$INTERSECTIONDISPLAY
280
     0
  9
$INTERSECTIONCOLOR
 70
   257
  9
$DIMASSOC
280
     2
  9
$PROJECTNAME
  1

  9
$CAMERADISPLAY
290
     0
  9
$LENSLENGTH
 40
50.0
  9
$CAMERAHEIGHT
 40
0.0
  9
$STEPSPERSEC
 40
2.0
  9
$STEPSIZE
 40
6.0
  9
$3DDWFPREC
 40
2.0
  9
$PSOLWIDTH
 40
0.25
  9
$PSOLHEIGHT
 40
4.0
  9
$LOFTANG1
 40
1.570796326794897
  9
$LOFTANG2
 40
1.570796326794897
  9
$LOFTMAG1
 40
0.0
  9
$LOFTMAG2
 40
0.0
  9
$LOFTPARAM
 70
     7
  9
$LOFTNORMALS
280
     1
  9
$LATITUDE
 40
37.795
  9
$LONGITUDE
 40
-122.394
  9
$NORTHDIRECTION
 40
0.0
  9
$TIMEZONE
 70
 -8000
  9
$LIGHTGLYPHDISPLAY
280
     1
  9
$TILEMODELIGHTSYNCH
280
     1
  9
$CMATERIAL
347
3C
  9
$SOLIDHIST
280
     1
  9
$SHOWHIST
280
     1
  9
$DWFFRAME
280
     2
  9
$DGNFRAME
280
     2
  9
$REALWORLDSCALE
290
     1
  9
$INTERFERECOLOR
 62
   256
  9
$CSHADOW
280
     0
  9
$SHADOWPLANELOCATION
 40
0.0
  0
ENDSEC
  0
SECTION
  2
CLASSES
  0
CLASS
  1
ACDBDICTIONARYWDFLT
  2
AcDbDictionaryWithDefault
  3
ObjectDBX Classes
 90
        0
 91
        4
280
     0
281
     0
  0
CLASS
  1
VISUALSTYLE
  2
AcDbVisualStyle
  3
ObjectDBX Classes
 90
     4095
 91
        4
280
     0
281
     0
  0
CLASS
  1
MATERIAL
  2
AcDbMaterial
  3
ObjectDBX Classes
 90
     1153
 91
        4
280
     0
281
     0
  0
CLASS
  1
SUN
  2
AcDbSun
  3
SCENEOE
 90
     1024
 91
        4
280
     0
281
     0
  0
ENDSEC
  0
SECTION
  2
TABLES
  0
TABLE
  2
VPORT
  5
8
330
0
100
AcDbSymbolTable
 70
     1
  0
VPORT
  5
29
330
8
100
AcDbSymbolTableRecord
100
AcDbViewportTableRecord
  2
*Active
 70
     0
 10
0.0
 20
0.0
 11
1.0
 21
1.0
 12
0.0
 22
0.0
 13
0.0
 23
0.0
 14
0.5
 24
0.5
 15
0.5
 25
0.5
 16
0.0
 26
0.0
 36
1.0
 17
960.0
 27
-540.0
 37
0.0
 40
1080.0
 41
1.777777777777778
 42
50.0
 43
0.0
 44
0.0
 50
0.0
 51
0.0
 71
     0
 72
   100
 73
     1
 74
     3
 75
     0
 76
     0
 77
     0
 78
     0
281
     0
 65
     1
110
0.0
120
0.0
130
0.0
111
1.0
121
0.0
131
0.0
112
0.0
122
1.0
132
0.0
 79
     0
146
0.0
 60
     3
 61
     5
292
     1
282
     1
141
0.0
142
0.0
 63
   250
361
3F
  0
ENDTAB
  0
TABLE
  2
LTYPE
  5
5
330
0
100
AcDbSymbolTable
 70
     1
  0
LTYPE
  5
14
330
5
100
AcDbSymbolTableRecord
100
AcDbLinetypeTableRecord
  2
ByBlock
 70
     0
  3

 72
    65
 73
     0
 40
0.0
  0
LTYPE
  5
15
330
5
100
AcDbSymbolTableRecord
100
AcDbLinetypeTableRecord
  2
ByLayer
 70
     0
  3

 72
    65
 73
     0
 40
0.0
  0
LTYPE
  5
16
330
5
100
AcDbSymbolTableRecord
100
AcDbLinetypeTableRecord
  2
Continuous
 70
     0
  3
Solid line
 72
    65
 73
     0
 40
0.0
  0
ENDTAB
  0
TABLE
  2
LAYER
  5
2
330
0
100
AcDbSymbolTable
 70
     2
  0
LAYER
  5
10
330
2
100
AcDbSymbolTableRecord
100
AcDbLayerTableRecord
  2
0
 70
     0
 62
     7
  6
Continuous
370
    -3
390
F
347
3E
  0
LAYER
  5
40
330
2
100
AcDbSymbolTableRecord
100
AcDbLayerTableRecord
  2
Layer 1
 70
     0
 62
     7
  6
Continuous
370
    -3
390
F
347
3E
  0
ENDTAB
  0
TABLE
  2
STYLE
  5
3
330
0
100
AcDbSymbolTable
 70
     1
  0
STYLE
  5
11
330
3
100
AcDbSymbolTableRecord
100
AcDbTextStyleTableRecord
  2
Standard
 70
     0
 40
0.0
 41
1.0
 50
0.0
 71
     0
 42
0.2
  3
txt
  4

  0
ENDTAB
  0
TABLE
  2
VIEW
  5
6
330
0
100
AcDbSymbolTable
 70
     0
  0
ENDTAB
  0
TABLE
  2
UCS
  5
7
330
0
100
AcDbSymbolTable
 70
     0
  0
ENDTAB
  0
TABLE
  2
APPID
  5
9
330
0
100
AcDbSymbolTable
 70
     1
  0
APPID
  5
12
330
9
100
AcDbSymbolTableRecord
100
AcDbRegAppTableRecord
  2
ACAD
 70
     0
  0
ENDTAB
  0
TABLE
  2
DIMSTYLE
  5
A
330
0
100
AcDbSymbolTable
 70
     1
100
AcDbDimStyleTable
  0
DIMSTYLE
105
27
330
A
100
AcDbSymbolTableRecord
100
AcDbDimStyleTableRecord
  2
Standard
 70
     0
178
     0
340
11
  0
ENDTAB
  0
TABLE
  2
BLOCK_RECORD
  5
1
330
0
100
AcDbSymbolTable
 70
     1
  0
BLOCK_RECORD
  5
1F
330
1
100
AcDbSymbolTableRecord
100
AcDbBlockTableRecord
  2
*Model_Space
340
22
 70
     0
280
     1
281
     0
  0
BLOCK_RECORD
  5
1B
330
1
100
AcDbSymbolTableRecord
100
AcDbBlockTableRecord
  2
*Paper_Space
340
1E
 70
     0
280
     1
281
     0
  0
BLOCK_RECORD
  5
23
330
1
100
AcDbSymbolTableRecord
100
AcDbBlockTableRecord
  2
*Paper_Space0
340
26
 70
     0
280
     1
281
     0
  0
ENDTAB
  0
ENDSEC
  0
SECTION
  2
BLOCKS
  0
BLOCK
  5
20
330
1F
100
AcDbEntity
  8
0
100
AcDbBlockBegin
  2
*Model_Space
 70
     0
 10
0.0
 20
0.0
 30
0.0
  3
*Model_Space
  1

  0
ENDBLK
  5
21
330
1F
100
AcDbEntity
  8
0
100
AcDbBlockEnd
  0
BLOCK
  5
1C
330
1B
100
AcDbEntity
 67
     1
  8
0
100
AcDbBlockBegin
  2
*Paper_Space
 70
     0
 10
0.0
 20
0.0
 30
0.0
  3
*Paper_Space
  1

  0
ENDBLK
  5
1D
330
1B
100
AcDbEntity
 67
     1
  8
0
100
AcDbBlockEnd
  0
BLOCK
  5
24
330
23
100
AcDbEntity
  8
0
100
AcDbBlockBegin
  2
*Paper_Space0
 70
     0
 10
0.0
 20
0.0
 30
0.0
  3
*Paper_Space0
  1

  0
ENDBLK
  5
25
330
23
100
AcDbEntity
  8
0
100
AcDbBlockEnd
  0
ENDSEC
  0
SECTION
  2
ENTITIES
  0
SPLINE
  5
41
330
1F
100
AcDbEntity
  8
Layer 1
370
     0
100
AcDbSpline
210
0.0
220
0.0
230
1.0
 70
    11
 71
     3
 72
    62
 73
    58
 74
     0
 42
0.0000000001
 43
0.0000000001
 12
1.0
 22
0.0
 32
0.0
 13
1.0
 23
0.0
 33
0.0
 40
0.0
 40
0.0
 40
0.0
 40
0.0
 40
1.0
 40
1.0
 40
1.0
 40
2.0
 40
2.0
 40
2.0
 40
3.0
 40
3.0
 40
3.0
 40
4.0
 40
4.0
 40
4.0
 40
5.0
 40
5.0
 40
5.0
 40
6.0
 40
6.0
 40
6.0
 40
7.0
 40
7.0
 40
7.0
 40
8.0
 40
8.0
 40
8.0
 40
9.0
 40
9.0
 40
9.0
 40
10.0
 40
10.0
 40
10.0
 40
11.0
 40
11.0
 40
11.0
 40
12.0
 40
12.0
 40
12.0
 40
13.0
 40
13.0
 40
13.0
 40
14.0
 40
14.0
 40
14.0
 40
15.0
 40
15.0
 40
15.0
 40
16.0
 40
16.0
 40
16.0
 40
17.0
 40
17.0
 40
17.0
 40
18.0
 40
18.0
 40
18.0
 40
19.0
 40
19.0
 40
19.0
 40
19.0
 10
698.7147216796875
 20
-883.072021484375
 30
0.0
 10
664.7145385742188
 20
-883.52685546875
 30
0.0
 10
634.007568359375
 20
-876.7010498046875
 30
0.0
 10
605.9046630859375
 20
-860.1683959960938
 30
0.0
 10
576.0223541259766
 20
-842.5890502929688
 30
0.0
 10
556.1706848144531
 20
-817.1767578125
 30
0.0
 10
549.4977188110352
 20
-782.7886352539062
 30
0.0
 10
544.0637283325195
 20
-754.785400390625
 30
0.0
 10
549.9472885131836
 20
-728.2557983398438
 30
0.0
 10
562.7673187255859
 20
-703.1006469726562
 30
0.0
 10
574.2873687744141
 20
-680.4962158203125
 30
0.0
 10
590.57666015625
 20
-661.8225708007812
 30
0.0
 10
610.0948486328125
 20
-645.796630859375
 30
0.0
 10
632.2966918945312
 20
-627.5671691894531
 30
0.0
 10
652.7698211669922
 20
-607.5859680175781
 30
0.0
 10
669.5104675292969
 20
-584.1569213867188
 30
0.0
 10
679.0465698242188
 20
-570.8108520507812
 30
0.0
 10
687.4667053222656
 20
-556.673095703125
 30
0.0
 10
696.6324768066406
 20
-543.0555114746094
 30
0.0
 10
714.8635559082031
 20
-515.9696655273438
 30
0.0
 10
740.2779235839844
 20
-498.4387512207031
 30
0.0
 10
770.9133911132812
 20
-488.1209411621094
 30
0.0
 10
789.9651794433594
 20
-481.7043762207031
 30
0.0
 10
809.6825256347656
 20
-479.7328491210938
 30
0.0
 10
829.5518798828125
 20
-481.8718872070312
 30
0.0
 10
856.1484069824219
 20
-484.735107421875
 30
0.0
 10
880.17236328125
 20
-494.296875
 30
0.0
 10
902.0298767089844
 20
-510.1731262207031
 30
0.0
 10
915.9397277832031
 20
-520.2765502929688
 30
0.0
 10
926.682373046875
 20
-532.9185485839844
 30
0.0
 10
936.2022705078125
 20
-546.6797485351562
 30
0.0
 10
942.2108764648438
 20
-555.365234375
 30
0.0
 10
946.129150390625
 20
-565.4685668945312
 30
0.0
 10
951.3860473632812
 20
-574.7077941894531
 30
0.0
 10
965.498779296875
 20
-599.5116577148438
 30
0.0
 10
984.2560424804688
 20
-620.0487060546875
 30
0.0
 10
1007.674682617188
 20
-636.5187377929688
 30
0.0
 10
1036.836242675781
 20
-657.0277404785156
 30
0.0
 10
1060.019897460938
 20
-682.7340087890625
 30
0.0
 10
1073.2041015625
 20
-716.3694458007812
 30
0.0
 10
1087.057983398438
 20
-751.7133178710938
 30
0.0
 10
1086.089294433594
 20
-786.316162109375
 30
0.0
 10
1066.299377441406
 20
-819.4154052734375
 30
0.0
 10
1054.077331542969
 20
-839.857177734375
 30
0.0
 10
1036.391479492188
 20
-854.4613647460938
 30
0.0
 10
1015.249633789062
 20
-864.9807739257812
 30
0.0
 10
990.3934326171875
 20
-877.3482666015625
 30
0.0
 10
964.0000610351562
 20
-882.8126831054688
 30
0.0
 10
936.2527465820312
 20
-883.1727905273438
 30
0.0
 10
908.6025390625
 20
-883.5316772460938
 30
0.0
 10
882.0533447265625
 20
-878.4329833984375
 30
0.0
 10
855.9294738769531
 20
-869.888671875
 30
0.0
 10
827.4509582519531
 20
-860.5742797851562
 30
0.0
 10
798.9828186035156
 20
-861.2889404296875
 30
0.0
 10
770.6351928710938
 20
-870.8375244140625
 30
0.0
 10
746.8160400390625
 20
-878.8607788085938
 30
0.0
 10
722.434326171875
 20
-883.6312866210938
 30
0.0
 10
698.7147216796875
 20
-883.072021484375
 30
0.0
  0
SPLINE
  5
42
330
1F
100
AcDbEntity
  8
Layer 1
370
     0
100
AcDbSpline
210
0.0
220
0.0
230
1.0
 70
    11
 71
     3
 72
    41
 73
    37
 74
     0
 42
0.0000000001
 43
0.0000000001
 12
1.0
 22
0.0
 32
0.0
 13
1.0
 23
0.0
 33
0.0
 40
0.0
 40
0.0
 40
0.0
 40
0.0
 40
1.0
 40
1.0
 40
1.0
 40
2.0
 40
2.0
 40
2.0
 40
3.0
 40
3.0
 40
3.0
 40
4.0
 40
4.0
 40
4.0
 40
5.0
 40
5.0
 40
5.0
 40
6.0
 40
6.0
 40
6.0
 40
7.0
 40
7.0
 40
7.0
 40
8.0
 40
8.0
 40
8.0
 40
9.0
 40
9.0
 40
9.0
 40
10.0
 40
10.0
 40
10.0
 40
11.0
 40
11.0
 40
11.0
 40
12.0
 40
12.0
 40
12.0
 40
12.0
 10
784.0429382324219
 20
-268.9738388061523
 30
0.0
 10
783.19384765625
 20
-261.2068557739258
 30
0.0
 10
782.2216796875
 20
-253.4258804321289
 30
0.0
 10
780.7377624511719
 20
-245.7611770629883
 30
0.0
 10
777.097412109375
 20
-226.9579849243164
 30
0.0
 10
772.6532287597656
 20
-208.4164047241211
 30
0.0
 10
763.0902099609375
 20
-191.4722938537598
 30
0.0
 10
749.4200439453125
 20
-167.2510499954224
 30
0.0
 10
728.6420593261719
 20
-158.6158441305161
 30
0.0
 10
702.0997009277344
 20
-166.5669975280762
 30
0.0
 10
682.8520202636719
 20
-172.3329343795776
 30
0.0
 10
666.8096160888672
 20
-183.588716506958
 30
0.0
 10
652.1369476318359
 20
-196.776424407959
 30
0.0
 10
631.9495239257812
 20
-214.9207344055176
 30
0.0
 10
615.2055206298828
 20
-235.9502258300781
 30
0.0
 10
602.1220703125
 20
-259.7910614013672
 30
0.0
 10
592.5621032714844
 20
-277.2114028930664
 30
0.0
 10
585.1147918701172
 20
-295.4517211914062
 30
0.0
 10
581.7119140625
 20
-315.1363525390625
 30
0.0
 10
577.9923706054688
 20
-336.6529388427734
 30
0.0
 10
579.7711029052734
 20
-357.9504241943359
 30
0.0
 10
585.2173614501953
 20
-378.9382781982422
 30
0.0
 10
593.1223907470703
 20
-409.4012908935547
 30
0.0
 10
607.6017456054688
 20
-435.9537658691406
 30
0.0
 10
633.6529998779297
 20
-454.6880493164062
 30
0.0
 10
657.8320617675781
 20
-472.0759582519531
 30
0.0
 10
684.4533996582031
 20
-476.4394226074219
 30
0.0
 10
712.6144104003906
 20
-465.8831787109375
 30
0.0
 10
740.3565673828125
 20
-455.48388671875
 30
0.0
 10
758.2857055664062
 20
-434.5256042480469
 30
0.0
 10
770.9645080566406
 20
-408.6461486816406
 30
0.0
 10
783.91259765625
 20
-382.2169799804688
 30
0.0
 10
788.2513122558594
 20
-353.9870300292969
 30
0.0
 10
787.4527282714844
 20
-324.7816314697266
 30
0.0
 10
786.5569458007812
 20
-306.1690216064453
 30
0.0
 10
786.0704345703125
 20
-287.5206451416016
 30
0.0
 10
784.0429382324219
 20
-268.9738388061523
 30
0.0
  0
SPLINE
  5
43
330
1F
100
AcDbEntity
  8
Layer 1
370
     0
100
AcDbSpline
210
0.0
220
0.0
230
1.0
 70
    11
 71
     3
 72
    38
 73
    34
 74
     0
 42
0.0000000001
 43
0.0000000001
 12
1.0
 22
0.0
 32
0.0
 13
1.0
 23
0.0
 33
0.0
 40
0.0
 40
0.0
 40
0.0
 40
0.0
 40
1.0
 40
1.0
 40
1.0
 40
2.0
 40
2.0
 40
2.0
 40
3.0
 40
3.0
 40
3.0
 40
4.0
 40
4.0
 40
4.0
 40
5.0
 40
5.0
 40
5.0
 40
6.0
 40
6.0
 40
6.0
 40
7.0
 40
7.0
 40
7.0
 40
8.0
 40
8.0
 40
8.0
 40
9.0
 40
9.0
 40
9.0
 40
10.0
 40
10.0
 40
10.0
 40
11.0
 40
11.0
 40
11.0
 40
11.0
 10
846.2411804199219
 20
-370.5679016113281
 30
0.0
 10
851.310546875
 20
-394.9925537109375
 30
0.0
 10
860.8300476074219
 20
-417.4811401367188
 30
0.0
 10
877.1659240722656
 20
-436.6908874511719
 30
0.0
 10
892.3055419921875
 20
-454.4939270019531
 30
0.0
 10
910.78564453125
 20
-467.1260681152344
 30
0.0
 10
934.2514343261719
 20
-470.4107055664062
 30
0.0
 10
968.4243774414062
 20
-475.1940612792969
 30
0.0
 10
995.4712524414062
 20
-461.2107849121094
 30
0.0
 10
1016.759460449219
 20
-435.6273193359375
 30
0.0
 10
1035.058044433594
 20
-413.63671875
 30
0.0
 10
1044.521057128906
 20
-387.6698150634766
 30
0.0
 10
1048.591125488281
 20
-359.3280181884766
 30
0.0
 10
1053.010437011719
 20
-328.5540161132812
 30
0.0
 10
1047.375183105469
 20
-299.8333892822266
 30
0.0
 10
1034.154663085938
 20
-272.1551055908203
 30
0.0
 10
1021.544372558594
 20
-245.7542953491211
 30
0.0
 10
1004.661987304688
 20
-222.443603515625
 30
0.0
 10
983.6019897460938
 20
-202.1786003112793
 30
0.0
 10
966.898193359375
 20
-186.1053562164307
 30
0.0
 10
948.5934448242188
 20
-172.4751462936401
 30
0.0
 10
925.8926696777344
 20
-165.9290399551392
 30
0.0
 10
905.3633117675781
 20
-160.0091042518616
 30
0.0
 10
884.9347229003906
 20
-165.5670175552368
 30
0.0
 10
872.0576782226562
 20
-183.6724243164062
 30
0.0
 10
861.9002075195312
 20
-197.9540557861328
 30
0.0
 10
856.3939208984375
 20
-214.0047378540039
 30
0.0
 10
852.3882446289062
 20
-230.6911239624023
 30
0.0
 10
844.9603576660156
 20
-261.6334228515625
 30
0.0
 10
843.7149963378906
 20
-293.25439453125
 30
0.0
 10
842.7145385742188
 20
-324.866455078125
 30
0.0
 10
841.9701843261719
 20
-340.2573089599609
 30
0.0
 10
843.1223449707031
 20
-355.5411529541016
 30
0.0
 10
846.2411804199219
 20
-370.5679016113281
 30
0.0
  0
SPLINE
  5
44
330
1F
100
AcDbEntity
  8
Layer 1
370
     0
100
AcDbSpline
210
0.0
220
0.0
230
1.0
 70
    11
 71
     3
 72
    35
 73
    31
 74
     0
 42
0.0000000001
 43
0.0000000001
 12
1.0
 22
0.0
 32
0.0
 13
1.0
 23
0.0
 33
0.0
 40
0.0
 40
0.0
 40
0.0
 40
0.0
 40
1.0
 40
1.0
 40
1.0
 40
2.0
 40
2.0
 40
2.0
 40
3.0
 40
3.0
 40
3.0
 40
4.0
 40
4.0
 40
4.0
 40
5.0
 40
5.0
 40
5.0
 40
6.0
 40
6.0
 40
6.0
 40
7.0
 40
7.0
 40
7.0
 40
8.0
 40
8.0
 40
8.0
 40
9.0
 40
9.0
 40
9.0
 40
10.0
 40
10.0
 40
10.0
 40
10.0
 10
1191.699584960938
 20
-468.4950561523438
 30
0.0
 10
1185.879699707031
 20
-444.5
 30
0.0
 10
1177.138488769531
 20
-421.7748413085938
 30
0.0
 10
1160.627990722656
 20
-402.9022216796875
 30
0.0
 10
1147.828002929688
 20
-388.2709503173828
 30
0.0
 10
1132.164489746094
 20
-379.7544555664062
 30
0.0
 10
1112.0390625
 20
-383.9501495361328
 30
0.0
 10
1098.623779296875
 20
-386.7469329833984
 30
0.0
 10
1087.738525390625
 20
-394.5530242919922
 30
0.0
 10
1077.886535644531
 20
-403.6813049316406
 30
0.0
 10
1060.245422363281
 20
-420.0264892578125
 30
0.0
 10
1046.850769042969
 20
-439.6632995605469
 30
0.0
 10
1035.294555664062
 20
-460.5535583496094
 30
0.0
 10
1021.115051269531
 20
-486.1858825683594
 30
0.0
 10
1008.015075683594
 20
-512.1708984375
 30
0.0
 10
1004.894897460938
 20
-542.0978088378906
 30
0.0
 10
1002.017395019531
 20
-569.6968078613281
 30
0.0
 10
1005.874450683594
 20
-595.6591491699219
 30
0.0
 10
1021.570190429688
 20
-618.8744812011719
 30
0.0
 10
1038.533874511719
 20
-643.9650573730469
 30
0.0
 10
1062.988098144531
 20
-654.3983459472656
 30
0.0
 10
1092.70068359375
 20
-651.0238647460938
 30
0.0
 10
1116.881164550781
 20
-648.2776184082031
 30
0.0
 10
1137.189392089844
 20
-636.4142456054688
 30
0.0
 10
1154.164855957031
 20
-619.4046936035156
 30
0.0
 10
1182.998168945312
 20
-590.5134582519531
 30
0.0
 10
1198.369567871094
 20
-555.8360900878906
 30
0.0
 10
1196.902709960938
 20
-513.3523559570312
 30
0.0
 10
1197.49560546875
 20
-498.8926086425781
 30
0.0
 10
1195.360168457031
 20
-483.5877380371094
 30
0.0
 10
1191.699584960938
 20
-468.4950561523438
 30
0.0
  0
SPLINE
  5
45
330
1F
100
AcDbEntity
  8
Layer 1
370
     0
100
AcDbSpline
210
0.0
220
0.0
230
1.0
 70
    11
 71
     3
 72
    35
 73
    31
 74
     0
 42
0.0000000001
 43
0.0000000001
 12
1.0
 22
0.0
 32
0.0
 13
1.0
 23
0.0
 33
0.0
 40
0.0
 40
0.0
 40
0.0
 40
0.0
 40
1.0
 40
1.0
 40
1.0
 40
2.0
 40
2.0
 40
2.0
 40
3.0
 40
3.0
 40
3.0
 40
4.0
 40
4.0
 40
4.0
 40
5.0
 40
5.0
 40
5.0
 40
6.0
 40
6.0
 40
6.0
 40
7.0
 40
7.0
 40
7.0
 40
8.0
 40
8.0
 40
8.0
 40
9.0
 40
9.0
 40
9.0
 40
10.0
 40
10.0
 40
10.0
 40
10.0
 10
613.2430572509766
 20
-611.1033325195312
 30
0.0
 10
629.6972503662109
 20
-578.9155578613281
 30
0.0
 10
629.7568664550781
 20
-545.4058532714844
 30
0.0
 10
618.3876647949219
 20
-511.9669799804688
 30
0.0
 10
606.02880859375
 20
-475.6173706054688
 30
0.0
 10
587.0878448486328
 20
-442.6705322265625
 30
0.0
 10
561.9263000488281
 20
-413.5654907226562
 30
0.0
 10
551.9723739624023
 20
-402.0514984130859
 30
0.0
 10
540.4092025756836
 20
-392.1851959228516
 30
0.0
 10
525.9738082885742
 20
-386.470458984375
 30
0.0
 10
512.9505081176758
 20
-381.3147430419922
 30
0.0
 10
500.1315536499023
 20
-381.5025939941406
 30
0.0
 10
487.5062065124512
 20
-388.2391357421875
 30
0.0
 10
472.1110801696777
 20
-396.4535369873047
 30
0.0
 10
462.3929443359375
 20
-409.8098297119141
 30
0.0
 10
454.571325302124
 20
-424.6520385742188
 30
0.0
 10
439.6405916213989
 20
-452.984375
 30
0.0
 10
433.0150947570801
 20
-483.3741149902344
 30
0.0
 10
432.8795981407166
 20
-515.3594360351562
 30
0.0
 10
432.8234806060791
 20
-528.6065673828125
 30
0.0
 10
433.8485579490662
 20
-541.7042846679688
 30
0.0
 10
437.3607664108276
 20
-554.3928527832031
 30
0.0
 10
445.4340267181396
 20
-583.5591735839844
 30
0.0
 10
461.1979713439941
 20
-607.9950561523438
 30
0.0
 10
484.6584587097168
 20
-627.1868896484375
 30
0.0
 10
502.7538452148438
 20
-641.9897155761719
 30
0.0
 10
523.1501617431641
 20
-651.3280639648438
 30
0.0
 10
547.0086517333984
 20
-651.5560913085938
 30
0.0
 10
575.4541473388672
 20
-652.0980834960938
 30
0.0
 10
600.4742431640625
 20
-636.0818176269531
 30
0.0
 10
613.2430572509766
 20
-611.1033325195312
 30
0.0
  0
HATCH
  5
46
330
1F
100
AcDbEntity
  8
Layer 1
 62
     7
420
 16777215
100
AcDbHatch
 10
0.0
 20
0.0
 30
0.0
210
0.0
220
0.0
230
1.0
  2
SOLID
 70
     1
 71
     0
 91
        5
 92
        1
 93
        1
 72
     4
 94
        3
 73
     0
 74
     1
 95
       62
 96
       58
 40
0.0
 40
0.0
 40
0.0
 40
0.0
 40
1.0
 40
1.0
 40
1.0
 40
2.0
 40
2.0
 40
2.0
 40
3.0
 40
3.0
 40
3.0
 40
4.0
 40
4.0
 40
4.0
 40
5.0
 40
5.0
 40
5.0
 40
6.0
 40
6.0
 40
6.0
 40
7.0
 40
7.0
 40
7.0
 40
8.0
 40
8.0
 40
8.0
 40
9.0
 40
9.0
 40
9.0
 40
10.0
 40
10.0
 40
10.0
 40
11.0
 40
11.0
 40
11.0
 40
12.0
 40
12.0
 40
12.0
 40
13.0
 40
13.0
 40
13.0
 40
14.0
 40
14.0
 40
14.0
 40
15.0
 40
15.0
 40
15.0
 40
16.0
 40
16.0
 40
16.0
 40
17.0
 40
17.0
 40
17.0
 40
18.0
 40
18.0
 40
18.0
 40
19.0
 40
19.0
 40
19.0
 40
19.0
 10
698.7147216796875
 20
-883.072021484375
 10
664.7145385742188
 20
-883.52685546875
 10
634.007568359375
 20
-876.7010498046875
 10
605.9046630859375
 20
-860.1683959960938
 10
576.0223541259766
 20
-842.5890502929688
 10
556.1706848144531
 20
-817.1767578125
 10
549.4977188110352
 20
-782.7886352539062
 10
544.0637283325195
 20
-754.785400390625
 10
549.9472885131836
 20
-728.2557983398438
 10
562.7673187255859
 20
-703.1006469726562
 10
574.2873687744141
 20
-680.4962158203125
 10
590.57666015625
 20
-661.8225708007812
 10
610.0948486328125
 20
-645.796630859375
 10
632.2966918945312
 20
-627.5671691894531
 10
652.7698211669922
 20
-607.5859680175781
 10
669.5104675292969
 20
-584.1569213867188
 10
679.0465698242188
 20
-570.8108520507812
 10
687.4667053222656
 20
-556.673095703125
 10
696.6324768066406
 20
-543.0555114746094
 10
714.8635559082031
 20
-515.9696655273438
 10
740.2779235839844
 20
-498.4387512207031
 10
770.9133911132812
 20
-488.1209411621094
 10
789.9651794433594
 20
-481.7043762207031
 10
809.6825256347656
 20
-479.7328491210938
 10
829.5518798828125
 20
-481.8718872070312
 10
856.1484069824219
 20
-484.735107421875
 10
880.17236328125
 20
-494.296875
 10
902.0298767089844
 20
-510.1731262207031
 10
915.9397277832031
 20
-520.2765502929688
 10
926.682373046875
 20
-532.9185485839844
 10
936.2022705078125
 20
-546.6797485351562
 10
942.2108764648438
 20
-555.365234375
 10
946.129150390625
 20
-565.4685668945312
 10
951.3860473632812
 20
-574.7077941894531
 10
965.498779296875
 20
-599.5116577148438
 10
984.2560424804688
 20
-620.0487060546875
 10
1007.674682617188
 20
-636.5187377929688
 10
1036.836242675781
 20
-657.0277404785156
 10
1060.019897460938
 20
-682.7340087890625
 10
1073.2041015625
 20
-716.3694458007812
 10
1087.057983398438
 20
-751.7133178710938
 10
1086.089294433594
 20
-786.316162109375
 10
1066.299377441406
 20
-819.4154052734375
 10
1054.077331542969
 20
-839.857177734375
 10
1036.391479492188
 20
-854.4613647460938
 10
1015.249633789062
 20
-864.9807739257812
 10
990.3934326171875
 20
-877.3482666015625
 10
964.0000610351562
 20
-882.8126831054688
 10
936.2527465820312
 20
-883.1727905273438
 10
908.6025390625
 20
-883.5316772460938
 10
882.0533447265625
 20
-878.4329833984375
 10
855.9294738769531
 20
-869.888671875
 10
827.4509582519531
 20
-860.5742797851562
 10
798.9828186035156
 20
-861.2889404296875
 10
770.6351928710938
 20
-870.8375244140625
 10
746.8160400390625
 20
-878.8607788085938
 10
722.434326171875
 20
-883.6312866210938
 10
698.7147216796875
 20
-883.072021484375
 97
        0
 97
        0
 92
        1
 93
        1
 72
     4
 94
        3
 73
     0
 74
     1
 95
       41
 96
       37
 40
0.0
 40
0.0
 40
0.0
 40
0.0
 40
1.0
 40
1.0
 40
1.0
 40
2.0
 40
2.0
 40
2.0
 40
3.0
 40
3.0
 40
3.0
 40
4.0
 40
4.0
 40
4.0
 40
5.0
 40
5.0
 40
5.0
 40
6.0
 40
6.0
 40
6.0
 40
7.0
 40
7.0
 40
7.0
 40
8.0
 40
8.0
 40
8.0
 40
9.0
 40
9.0
 40
9.0
 40
10.0
 40
10.0
 40
10.0
 40
11.0
 40
11.0
 40
11.0
 40
12.0
 40
12.0
 40
12.0
 40
12.0
 10
784.0429382324219
 20
-268.9738388061523
 10
783.19384765625
 20
-261.2068557739258
 10
782.2216796875
 20
-253.4258804321289
 10
780.7377624511719
 20
-245.7611770629883
 10
777.097412109375
 20
-226.9579849243164
 10
772.6532287597656
 20
-208.4164047241211
 10
763.0902099609375
 20
-191.4722938537598
 10
749.4200439453125
 20
-167.2510499954224
 10
728.6420593261719
 20
-158.6158441305161
 10
702.0997009277344
 20
-166.5669975280762
 10
682.8520202636719
 20
-172.3329343795776
 10
666.8096160888672
 20
-183.588716506958
 10
652.1369476318359
 20
-196.776424407959
 10
631.9495239257812
 20
-214.9207344055176
 10
615.2055206298828
 20
-235.9502258300781
 10
602.1220703125
 20
-259.7910614013672
 10
592.5621032714844
 20
-277.2114028930664
 10
585.1147918701172
 20
-295.4517211914062
 10
581.7119140625
 20
-315.1363525390625
 10
577.9923706054688
 20
-336.6529388427734
 10
579.7711029052734
 20
-357.9504241943359
 10
585.2173614501953
 20
-378.9382781982422
 10
593.1223907470703
 20
-409.4012908935547
 10
607.6017456054688
 20
-435.9537658691406
 10
633.6529998779297
 20
-454.6880493164062
 10
657.8320617675781
 20
-472.0759582519531
 10
684.4533996582031
 20
-476.4394226074219
 10
712.6144104003906
 20
-465.8831787109375
 10
740.3565673828125
 20
-455.48388671875
 10
758.2857055664062
 20
-434.5256042480469
 10
770.9645080566406
 20
-408.6461486816406
 10
783.91259765625
 20
-382.2169799804688
 10
788.2513122558594
 20
-353.9870300292969
 10
787.4527282714844
 20
-324.7816314697266
 10
786.5569458007812
 20
-306.1690216064453
 10
786.0704345703125
 20
-287.5206451416016
 10
784.0429382324219
 20
-268.9738388061523
 97
        0
 97
        0
 92
        1
 93
        1
 72
     4
 94
        3
 73
     0
 74
     1
 95
       38
 96
       34
 40
0.0
 40
0.0
 40
0.0
 40
0.0
 40
1.0
 40
1.0
 40
1.0
 40
2.0
 40
2.0
 40
2.0
 40
3.0
 40
3.0
 40
3.0
 40
4.0
 40
4.0
 40
4.0
 40
5.0
 40
5.0
 40
5.0
 40
6.0
 40
6.0
 40
6.0
 40
7.0
 40
7.0
 40
7.0
 40
8.0
 40
8.0
 40
8.0
 40
9.0
 40
9.0
 40
9.0
 40
10.0
 40
10.0
 40
10.0
 40
11.0
 40
11.0
 40
11.0
 40
11.0
 10
846.2411804199219
 20
-370.5679016113281
 10
851.310546875
 20
-394.9925537109375
 10
860.8300476074219
 20
-417.4811401367188
 10
877.1659240722656
 20
-436.6908874511719
 10
892.3055419921875
 20
-454.4939270019531
 10
910.78564453125
 20
-467.1260681152344
 10
934.2514343261719
 20
-470.4107055664062
 10
968.4243774414062
 20
-475.1940612792969
 10
995.4712524414062
 20
-461.2107849121094
 10
1016.759460449219
 20
-435.6273193359375
 10
1035.058044433594
 20
-413.63671875
 10
1044.521057128906
 20
-387.6698150634766
 10
1048.591125488281
 20
-359.3280181884766
 10
1053.010437011719
 20
-328.5540161132812
 10
1047.375183105469
 20
-299.8333892822266
 10
1034.154663085938
 20
-272.1551055908203
 10
1021.544372558594
 20
-245.7542953491211
 10
1004.661987304688
 20
-222.443603515625
 10
983.6019897460938
 20
-202.1786003112793
 10
966.898193359375
 20
-186.1053562164307
 10
948.5934448242188
 20
-172.4751462936401
 10
925.8926696777344
 20
-165.9290399551392
 10
905.3633117675781
 20
-160.0091042518616
 10
884.9347229003906
 20
-165.5670175552368
 10
872.0576782226562
 20
-183.6724243164062
 10
861.9002075195312
 20
-197.9540557861328
 10
856.3939208984375
 20
-214.0047378540039
 10
852.3882446289062
 20
-230.6911239624023
 10
844.9603576660156
 20
-261.6334228515625
 10
843.7149963378906
 20
-293.25439453125
 10
842.7145385742188
 20
-324.866455078125
 10
841.9701843261719
 20
-340.2573089599609
 10
843.1223449707031
 20
-355.5411529541016
 10
846.2411804199219
 20
-370.5679016113281
 97
        0
 97
        0
 92
        1
 93
        1
 72
     4
 94
        3
 73
     0
 74
     1
 95
       35
 96
       31
 40
0.0
 40
0.0
 40
0.0
 40
0.0
 40
1.0
 40
1.0
 40
1.0
 40
2.0
 40
2.0
 40
2.0
 40
3.0
 40
3.0
 40
3.0
 40
4.0
 40
4.0
 40
4.0
 40
5.0
 40
5.0
 40
5.0
 40
6.0
 40
6.0
 40
6.0
 40
7.0
 40
7.0
 40
7.0
 40
8.0
 40
8.0
 40
8.0
 40
9.0
 40
9.0
 40
9.0
 40
10.0
 40
10.0
 40
10.0
 40
10.0
 10
1191.699584960938
 20
-468.4950561523438
 10
1185.879699707031
 20
-444.5
 10
1177.138488769531
 20
-421.7748413085938
 10
1160.627990722656
 20
-402.9022216796875
 10
1147.828002929688
 20
-388.2709503173828
 10
1132.164489746094
 20
-379.7544555664062
 10
1112.0390625
 20
-383.9501495361328
 10
1098.623779296875
 20
-386.7469329833984
 10
1087.738525390625
 20
-394.5530242919922
 10
1077.886535644531
 20
-403.6813049316406
 10
1060.245422363281
 20
-420.0264892578125
 10
1046.850769042969
 20
-439.6632995605469
 10
1035.294555664062
 20
-460.5535583496094
 10
1021.115051269531
 20
-486.1858825683594
 10
1008.015075683594
 20
-512.1708984375
 10
1004.894897460938
 20
-542.0978088378906
 10
1002.017395019531
 20
-569.6968078613281
 10
1005.874450683594
 20
-595.6591491699219
 10
1021.570190429688
 20
-618.8744812011719
 10
1038.533874511719
 20
-643.9650573730469
 10
1062.988098144531
 20
-654.3983459472656
 10
1092.70068359375
 20
-651.0238647460938
 10
1116.881164550781
 20
-648.2776184082031
 10
1137.189392089844
 20
-636.4142456054688
 10
1154.164855957031
 20
-619.4046936035156
 10
1182.998168945312
 20
-590.5134582519531
 10
1198.369567871094
 20
-555.8360900878906
 10
1196.902709960938
 20
-513.3523559570312
 10
1197.49560546875
 20
-498.8926086425781
 10
1195.360168457031
 20
-483.5877380371094
 10
1191.699584960938
 20
-468.4950561523438
 97
        0
 97
        0
 92
        1
 93
        1
 72
     4
 94
        3
 73
     0
 74
     1
 95
       35
 96
       31
 40
0.0
 40
0.0
 40
0.0
 40
0.0
 40
1.0
 40
1.0
 40
1.0
 40
2.0
 40
2.0
 40
2.0
 40
3.0
 40
3.0
 40
3.0
 40
4.0
 40
4.0
 40
4.0
 40
5.0
 40
5.0
 40
5.0
 40
6.0
 40
6.0
 40
6.0
 40
7.0
 40
7.0
 40
7.0
 40
8.0
 40
8.0
 40
8.0
 40
9.0
 40
9.0
 40
9.0
 40
10.0
 40
10.0
 40
10.0
 40
10.0
 10
613.2430572509766
 20
-611.1033325195312
 10
629.6972503662109
 20
-578.9155578613281
 10
629.7568664550781
 20
-545.4058532714844
 10
618.3876647949219
 20
-511.9669799804688
 10
606.02880859375
 20
-475.6173706054688
 10
587.0878448486328
 20
-442.6705322265625
 10
561.9263000488281
 20
-413.5654907226562
 10
551.9723739624023
 20
-402.0514984130859
 10
540.4092025756836
 20
-392.1851959228516
 10
525.9738082885742
 20
-386.470458984375
 10
512.9505081176758
 20
-381.3147430419922
 10
500.1315536499023
 20
-381.5025939941406
 10
487.5062065124512
 20
-388.2391357421875
 10
472.1110801696777
 20
-396.4535369873047
 10
462.3929443359375
 20
-409.8098297119141
 10
454.571325302124
 20
-424.6520385742188
 10
439.6405916213989
 20
-452.984375
 10
433.0150947570801
 20
-483.3741149902344
 10
432.8795981407166
 20
-515.3594360351562
 10
432.8234806060791
 20
-528.6065673828125
 10
433.8485579490662
 20
-541.7042846679688
 10
437.3607664108276
 20
-554.3928527832031
 10
445.4340267181396
 20
-583.5591735839844
 10
461.1979713439941
 20
-607.9950561523438
 10
484.6584587097168
 20
-627.1868896484375
 10
502.7538452148438
 20
-641.9897155761719
 10
523.1501617431641
 20
-651.3280639648438
 10
547.0086517333984
 20
-651.5560913085938
 10
575.4541473388672
 20
-652.0980834960938
 10
600.4742431640625
 20
-636.0818176269531
 10
613.2430572509766
 20
-611.1033325195312
 97
        0
 97
        0
 75
     2
 76
     1
 98
        0
  0
ENDSEC
  0
SECTION
  2
OBJECTS
  0
DICTIONARY
  5
C
330
0
100
AcDbDictionary
281
     1
  3
ACAD_GROUP
350
D
  3
ACAD_LAYOUT
350
1A
  3
ACAD_MATERIAL
350
3B
  3
ACAD_MLEADERSTYLE
350
48
  3
ACAD_MLINESTYLE
350
17
  3
ACAD_PLOTSETTINGS
350
19
  3
ACAD_PLOTSTYLENAME
350
E
  3
ACAD_TABLESTYLE
350
47
  3
ACAD_VISUALSTYLE
350
2A
  0
SUN
  5
3F
330
29
100
AcDbSun
 90
        1
290
     0
 63
     7
421
 16777215
 40
1.0
291
     1
 91
  2455826
 92
 54000000
292
     0
 70
     2
 71
   256
280
     1
  0
DICTIONARY
  5
D
102
{ACAD_REACTORS
330
C
102
}
330
C
100
AcDbDictionary
281
     1
  0
DICTIONARY
  5
1A
102
{ACAD_REACTORS
330
C
102
}
330
C
100
AcDbDictionary
281
     1
  3
Layout1
350
1E
  3
Layout2
350
26
  3
Model
350
22
  0
DICTIONARY
  5
3B
102
{ACAD_REACTORS
330
C
102
}
330
C
100
AcDbDictionary
281
     1
  3
ByBlock
350
3D
  3
ByLayer
350
3C
  3
Global
350
3E
  0
DICTIONARY
  5
48
102
{ACAD_REACTORS
330
C
102
}
330
C
100
AcDbDictionary
281
     1
  0
DICTIONARY
  5
17
102
{ACAD_REACTORS
330
C
102
}
330
C
100
AcDbDictionary
281
     1
  3
Standard
350
18
  0
DICTIONARY
  5
19
102
{ACAD_REACTORS
330
C
102
}
330
C
100
AcDbDictionary
281
     1
  0
ACDBDICTIONARYWDFLT
  5
E
102
{ACAD_REACTORS
330
C
102
}
330
C
100
AcDbDictionary
281
     1
  3
Normal
350
F
100
AcDbDictionaryWithDefault
340
F
  0
DICTIONARY
  5
47
102
{ACAD_REACTORS
330
C
102
}
330
C
100
AcDbDictionary
281
     1
  0
DICTIONARY
  5
2A
102
{ACAD_REACTORS
330
C
102
}
330
C
100
AcDbDictionary
281
     1
  3
2dWireframe
350
2F
  3
3D Hidden
350
31
  3
3dWireframe
350
30
  3
Basic
350
32
  3
Brighten
350
36
  3
ColorChange
350
3A
  3
Conceptual
350
34
  3
Dim
350
35
  3
Facepattern
350
39
  3
Flat
350
2B
  3
FlatWithEdges
350
2C
  3
Gouraud
350
2D
  3
GouraudWithEdges
350
2E
  3
Linepattern
350
38
  3
Realistic
350
33
  3
Thicken
350
37
  0
LAYOUT
  5
1E
102
{ACAD_REACTORS
330
1A
102
}
330
1A
100
AcDbPlotSettings
  1

  2
none_device
  4

  6

 40
0.0
 41
0.0
 42
0.0
 43
0.0
 44
0.0
 45
0.0
 46
0.0
 47
0.0
 48
0.0
 49
0.0
140
0.0
141
0.0
142
1.0
143
1.0
 70
   688
 72
     0
 73
     0
 74
     5
  7

 75
    16
 76
     0
 77
     2
 78
   300
147
1.0
148
0.0
149
0.0
100
AcDbLayout
  1
Layout1
 70
     1
 71
     1
 10
0.0
 20
0.0
 11
12.0
 21
9.0
 12
0.0
 22
0.0
 32
0.0
 14
1.000000000000000E+20
 24
1.000000000000000E+20
 34
1.000000000000000E+20
 15
-1.000000000000000E+20
 25
-1.000000000000000E+20
 35
-1.000000000000000E+20
146
0.0
 13
0.0
 23
0.0
 33
0.0
 16
1.0
 26
0.0
 36
0.0
 17
0.0
 27
1.0
 37
0.0
 76
     0
330
1B
  0
LAYOUT
  5
26
102
{ACAD_REACTORS
330
1A
102
}
330
1A
100
AcDbPlotSettings
  1

  2
none_device
  4

  6

 40
0.0
 41
0.0
 42
0.0
 43
0.0
 44
0.0
 45
0.0
 46
0.0
 47
0.0
 48
0.0
 49
0.0
140
0.0
141
0.0
142
1.0
143
1.0
 70
   688
 72
     0
 73
     0
 74
     5
  7

 75
    16
 76
     0
 77
     2
 78
   300
147
1.0
148
0.0
149
0.0
100
AcDbLayout
  1
Layout2
 70
     1
 71
     2
 10
0.0
 20
0.0
 11
0.0
 21
0.0
 12
0.0
 22
0.0
 32
0.0
 14
0.0
 24
0.0
 34
0.0
 15
0.0
 25
0.0
 35
0.0
146
0.0
 13
0.0
 23
0.0
 33
0.0
 16
1.0
 26
0.0
 36
0.0
 17
0.0
 27
1.0
 37
0.0
 76
     0
330
23
  0
LAYOUT
  5
22
102
{ACAD_REACTORS
330
1A
102
}
330
1A
100
AcDbPlotSettings
  1

  2
none_device
  4

  6

 40
0.0
 41
0.0
 42
0.0
 43
0.0
 44
0.0
 45
0.0
 46
0.0
 47
0.0
 48
0.0
 49
0.0
140
0.0
141
0.0
142
1.0
143
1.0
 70
  1712
 72
     0
 73
     0
 74
     0
  7

 75
     0
 76
     0
 77
     2
 78
   300
147
1.0
148
0.0
149
0.0
100
AcDbLayout
  1
Model
 70
     1
 71
     0
 10
0.0
 20
0.0
 11
12.0
 21
9.0
 12
0.0
 22
0.0
 32
0.0
 14
1.000000000000000E+20
 24
1.000000000000000E+20
 34
1.000000000000000E+20
 15
-1.000000000000000E+20
 25
-1.000000000000000E+20
 35
-1.000000000000000E+20
146
0.0
 13
0.0
 23
0.0
 33
0.0
 16
1.0
 26
0.0
 36
0.0
 17
0.0
 27
1.0
 37
0.0
 76
     0
330
1F
331
29
  0
MATERIAL
  5
3D
102
{ACAD_REACTORS
330
3B
102
}
330
3B
100
AcDbMaterial
  1
ByBlock
 72
     1
 94
      127
  0
MATERIAL
  5
3C
102
{ACAD_REACTORS
330
3B
102
}
330
3B
100
AcDbMaterial
  1
ByLayer
 72
     1
 94
      127
  0
MATERIAL
  5
3E
102
{ACAD_REACTORS
330
3B
102
}
330
3B
100
AcDbMaterial
  1
Global
 72
     1
 94
      127
  0
MLINESTYLE
  5
18
102
{ACAD_REACTORS
330
17
102
}
330
17
100
AcDbMlineStyle
  2
Standard
 70
     0
  3

 62
   256
 51
90.0
 52
90.0
 71
     2
 49
0.5
 62
   256
  6
BYLAYER
 49
-0.5
 62
   256
  6
BYLAYER
  0
ACDBPLACEHOLDER
  5
F
102
{ACAD_REACTORS
330
E
102
}
330
E
  0
VISUALSTYLE
  5
2F
102
{ACAD_REACTORS
330
2A
102
}
330
2A
100
AcDbVisualStyle
  2
2dWireframe
 70
     4
177
     2
291
     0
 71
     0
176
     1
 72
     2
176
     1
 73
     0
176
     1
 90
        0
176
     1
 40
-0.6
176
     1
 41
-30.0
176
     1
 62
     5
 63
     7
421
 16777215
176
     1
 74
     1
176
     1
 91
        4
176
     1
 64
     7
176
     1
 65
   257
176
     1
 75
     1
176
     1
175
     1
176
     1
 42
1.0
176
     1
 92
        0
176
     1
 66
   257
176
     1
 43
1.0
176
     1
 76
     1
176
     1
 77
     6
176
     1
 78
     2
176
     1
 67
     7
176
     1
 79
     5
176
     1
170
     0
176
     1
171
     0
176
     1
290
     0
176
     1
 93
        1
176
     1
 44
0.0
176
     1
173
     0
176
     1
  0
VISUALSTYLE
  5
31
102
{ACAD_REACTORS
330
2A
102
}
330
2A
100
AcDbVisualStyle
  2
3D Hidden
 70
     6
177
     2
291
     0
 71
     1
176
     1
 72
     2
176
     1
 73
     2
176
     1
 90
        0
176
     1
 40
-0.6
176
     1
 41
-30.0
176
     1
 62
     5
 63
     7
421
 16777215
176
     1
 74
     2
176
     1
 91
        2
176
     1
 64
     7
176
     1
 65
   257
176
     1
 75
     2
176
     1
175
     1
176
     1
 42
40.0
176
     1
 92
        0
176
     1
 66
   257
176
     1
 43
1.0
176
     1
 76
     1
176
     1
 77
     6
176
     1
 78
     2
176
     1
 67
     7
176
     1
 79
     3
176
     1
170
     0
176
     1
171
     0
176
     1
290
     0
176
     1
 93
        1
176
     1
 44
0.0
176
     1
173
     0
176
     1
  0
VISUALSTYLE
  5
30
102
{ACAD_REACTORS
330
2A
102
}
330
2A
100
AcDbVisualStyle
  2
3dWireframe
 70
     5
177
     2
291
     0
 71
     0
176
     1
 72
     2
176
     1
 73
     0
176
     1
 90
        0
176
     1
 40
-0.6
176
     1
 41
-30.0
176
     1
 62
     5
 63
     7
421
 16777215
176
     1
 74
     1
176
     1
 91
        4
176
     1
 64
     7
176
     1
 65
   257
176
     1
 75
     1
176
     1
175
     1
176
     1
 42
1.0
176
     1
 92
        0
176
     1
 66
   257
176
     1
 43
1.0
176
     1
 76
     1
176
     1
 77
     6
176
     1
 78
     2
176
     1
 67
     7
176
     1
 79
     5
176
     1
170
     0
176
     1
171
     0
176
     1
290
     0
176
     1
 93
        1
176
     1
 44
0.0
176
     1
173
     0
176
     1
  0
VISUALSTYLE
  5
32
102
{ACAD_REACTORS
330
2A
102
}
330
2A
100
AcDbVisualStyle
  2
Basic
 70
     7
177
     2
291
     1
 71
     1
176
     1
 72
     0
176
     1
 73
     1
176
     1
 90
        0
176
     1
 40
-0.6
176
     1
 41
-30.0
176
     1
 62
     5
 63
     7
421
 16777215
176
     1
 74
     0
176
     1
 91
        4
176
     1
 64
     7
176
     1
 65
   257
176
     1
 75
     1
176
     1
175
     1
176
     1
 42
1.0
176
     1
 92
        8
176
     1
 66
     7
176
     1
 43
1.0
176
     1
 76
     1
176
     1
 77
     6
176
     1
 78
     2
176
     1
 67
     7
176
     1
 79
     5
176
     1
170
     0
176
     1
171
     0
176
     1
290
     0
176
     1
 93
        1
176
     1
 44
0.0
176
     1
173
     0
176
     1
  0
VISUALSTYLE
  5
36
102
{ACAD_REACTORS
330
2A
102
}
330
2A
100
AcDbVisualStyle
  2
Brighten
 70
    12
177
     2
291
     1
 71
     2
176
     1
 72
     2
176
     1
 73
     0
176
     1
 90
        0
176
     1
 40
-0.6
176
     1
 41
-30.0
176
     1
 62
     5
 63
     7
421
 16777215
176
     1
 74
     1
176
     1
 91
        4
176
     1
 64
     7
176
     1
 65
   257
176
     1
 75
     1
176
     1
175
     1
176
     1
 42
1.0
176
     1
 92
        8
176
     1
 66
     7
176
     1
 43
1.0
176
     1
 76
     1
176
     1
 77
     6
176
     1
 78
     2
176
     1
 67
     7
176
     1
 79
     5
176
     1
170
     0
176
     1
171
     0
176
     1
290
     0
176
     1
 93
        1
176
     1
 44
50.0
176
     1
173
     0
176
     1
  0
VISUALSTYLE
  5
3A
102
{ACAD_REACTORS
330
2A
102
}
330
2A
100
AcDbVisualStyle
  2
ColorChange
 70
    16
177
     2
291
     1
 71
     2
176
     1
 72
     2
176
     1
 73
     3
176
     1
 90
        0
176
     1
 40
-0.6
176
     1
 41
-30.0
176
     1
 62
     5
 63
     8
421
  8421504
176
     1
 74
     1
176
     1
 91
        4
176
     1
 64
     7
176
     1
 65
   257
176
     1
 75
     1
176
     1
175
     1
176
     1
 42
1.0
176
     1
 92
        8
176
     1
 66
     8
424
  8421504
176
     1
 43
1.0
176
     1
 76
     1
176
     1
 77
     6
176
     1
 78
     2
176
     1
 67
     7
176
     1
 79
     5
176
     1
170
     0
176
     1
171
     0
176
     1
290
     0
176
     1
 93
        1
176
     1
 44
0.0
176
     1
173
     0
176
     1
  0
VISUALSTYLE
  5
34
102
{ACAD_REACTORS
330
2A
102
}
330
2A
100
AcDbVisualStyle
  2
Conceptual
 70
     9
177
     2
291
     0
 71
     3
176
     1
 72
     2
176
     1
 73
     0
176
     1
 90
        0
176
     1
 40
-0.6
176
     1
 41
-30.0
176
     1
 62
     5
 63
     7
421
 16777215
176
     1
 74
     2
176
     1
 91
        2
176
     1
 64
     7
176
     1
 65
   257
176
     1
 75
     1
176
     1
175
     1
176
     1
 42
40.0
176
     1
 92
        8
176
     1
 66
     7
176
     1
 43
1.0
176
     1
 76
     1
176
     1
 77
     6
176
     1
 78
     2
176
     1
 67
     7
176
     1
 79
     3
176
     1
170
     0
176
     1
171
     0
176
     1
290
     0
176
     1
 93
        1
176
     1
 44
0.0
176
     1
173
     0
176
     1
  0
VISUALSTYLE
  5
35
102
{ACAD_REACTORS
330
2A
102
}
330
2A
100
AcDbVisualStyle
  2
Dim
 70
    11
177
     2
291
     1
 71
     2
176
     1
 72
     2
176
     1
 73
     0
176
     1
 90
        0
176
     1
 40
-0.6
176
     1
 41
-30.0
176
     1
 62
     5
 63
     7
421
 16777215
176
     1
 74
     1
176
     1
 91
        4
176
     1
 64
     7
176
     1
 65
   257
176
     1
 75
     1
176
     1
175
     1
176
     1
 42
1.0
176
     1
 92
        8
176
     1
 66
     7
176
     1
 43
1.0
176
     1
 76
     1
176
     1
 77
     6
176
     1
 78
     2
176
     1
 67
     7
176
     1
 79
     5
176
     1
170
     0
176
     1
171
     0
176
     1
290
     0
176
     1
 93
        1
176
     1
 44
-50.0
176
     1
173
     0
176
     1
  0
VISUALSTYLE
  5
39
102
{ACAD_REACTORS
330
2A
102
}
330
2A
100
AcDbVisualStyle
  2
Facepattern
 70
    15
177
     2
291
     1
 71
     2
176
     1
 72
     2
176
     1
 73
     0
176
     1
 90
        0
176
     1
 40
-0.6
176
     1
 41
-30.0
176
     1
 62
     5
 63
     7
421
 16777215
176
     1
 74
     1
176
     1
 91
        4
176
     1
 64
     7
176
     1
 65
   257
176
     1
 75
     1
176
     1
175
     1
176
     1
 42
1.0
176
     1
 92
        8
176
     1
 66
     7
176
     1
 43
1.0
176
     1
 76
     1
176
     1
 77
     6
176
     1
 78
     2
176
     1
 67
     7
176
     1
 79
     5
176
     1
170
     0
176
     1
171
     0
176
     1
290
     0
176
     1
 93
        1
176
     1
 44
0.0
176
     1
173
     0
176
     1
  0
VISUALSTYLE
  5
2B
102
{ACAD_REACTORS
330
2A
102
}
330
2A
100
AcDbVisualStyle
  2
Flat
 70
     0
177
     2
291
     1
 71
     2
176
     1
 72
     1
176
     1
 73
     1
176
     1
 90
        2
176
     1
 40
-0.6
176
     1
 41
30.0
176
     1
 62
     5
 63
     7
421
 16777215
176
     1
 74
     0
176
     1
 91
        4
176
     1
 64
     7
176
     1
 65
   257
176
     1
 75
     1
176
     1
175
     1
176
     1
 42
1.0
176
     1
 92
        8
176
     1
 66
     7
176
     1
 43
1.0
176
     1
 76
     1
176
     1
 77
     6
176
     1
 78
     2
176
     1
 67
     7
176
     1
 79
     5
176
     1
170
     0
176
     1
171
     0
176
     1
290
     0
176
     1
 93
       13
176
     1
 44
0.0
176
     1
173
     0
176
     1
  0
VISUALSTYLE
  5
2C
102
{ACAD_REACTORS
330
2A
102
}
330
2A
100
AcDbVisualStyle
  2
FlatWithEdges
 70
     1
177
     2
291
     1
 71
     2
176
     1
 72
     1
176
     1
 73
     1
176
     1
 90
        2
176
     1
 40
-0.6
176
     1
 41
30.0
176
     1
 62
     5
 63
     7
421
 16777215
176
     1
 74
     1
176
     1
 91
        4
176
     1
 64
     7
176
     1
 65
   257
176
     1
 75
     1
176
     1
175
     1
176
     1
 42
1.0
176
     1
 92
        0
176
     1
 66
   257
176
     1
 43
1.0
176
     1
 76
     1
176
     1
 77
     6
176
     1
 78
     2
176
     1
 67
     7
176
     1
 79
     5
176
     1
170
     0
176
     1
171
     0
176
     1
290
     0
176
     1
 93
       13
176
     1
 44
0.0
176
     1
173
     0
176
     1
  0
VISUALSTYLE
  5
2D
102
{ACAD_REACTORS
330
2A
102
}
330
2A
100
AcDbVisualStyle
  2
Gouraud
 70
     2
177
     2
291
     1
 71
     2
176
     1
 72
     2
176
     1
 73
     1
176
     1
 90
        2
176
     1
 40
-0.6
176
     1
 41
30.0
176
     1
 62
     5
 63
     7
421
 16777215
176
     1
 74
     0
176
     1
 91
        4
176
     1
 64
     7
176
     1
 65
   257
176
     1
 75
     1
176
     1
175
     1
176
     1
 42
1.0
176
     1
 92
        0
176
     1
 66
     7
176
     1
 43
1.0
176
     1
 76
     1
176
     1
 77
     6
176
     1
 78
     2
176
     1
 67
     7
176
     1
 79
     5
176
     1
170
     0
176
     1
171
     0
176
     1
290
     0
176
     1
 93
       13
176
     1
 44
0.0
176
     1
173
     0
176
     1
  0
VISUALSTYLE
  5
2E
102
{ACAD_REACTORS
330
2A
102
}
330
2A
100
AcDbVisualStyle
  2
GouraudWithEdges
 70
     3
177
     2
291
     1
 71
     2
176
     1
 72
     2
176
     1
 73
     1
176
     1
 90
        2
176
     1
 40
-0.6
176
     1
 41
30.0
176
     1
 62
     5
 63
     7
421
 16777215
176
     1
 74
     1
176
     1
 91
        4
176
     1
 64
     7
176
     1
 65
   257
176
     1
 75
     1
176
     1
175
     1
176
     1
 42
1.0
176
     1
 92
        0
176
     1
 66
   257
176
     1
 43
1.0
176
     1
 76
     1
176
     1
 77
     6
176
     1
 78
     2
176
     1
 67
     7
176
     1
 79
     5
176
     1
170
     0
176
     1
171
     0
176
     1
290
     0
176
     1
 93
       13
176
     1
 44
0.0
176
     1
173
     0
176
     1
  0
VISUALSTYLE
  5
38
102
{ACAD_REACTORS
330
2A
102
}
330
2A
100
AcDbVisualStyle
  2
Linepattern
 70
    14
177
     2
291
     1
 71
     2
176
     1
 72
     2
176
     1
 73
     0
176
     1
 90
        0
176
     1
 40
-0.6
176
     1
 41
-30.0
176
     1
 62
     5
 63
     7
421
 16777215
176
     1
 74
     1
176
     1
 91
        4
176
     1
 64
     7
176
     1
 65
   257
176
     1
 75
     7
176
     1
175
     7
176
     1
 42
1.0
176
     1
 92
        8
176
     1
 66
     7
176
     1
 43
1.0
176
     1
 76
     1
176
     1
 77
     6
176
     1
 78
     2
176
     1
 67
     7
176
     1
 79
     5
176
     1
170
     0
176
     1
171
     0
176
     1
290
     0
176
     1
 93
        1
176
     1
 44
0.0
176
     1
173
     0
176
     1
  0
VISUALSTYLE
  5
33
102
{ACAD_REACTORS
330
2A
102
}
330
2A
100
AcDbVisualStyle
  2
Realistic
 70
     8
177
     2
291
     0
 71
     2
176
     1
 72
     2
176
     1
 73
     0
176
     1
 90
        0
176
     1
 40
-0.6
176
     1
 41
-30.0
176
     1
 62
     5
 63
     7
421
 16777215
176
     1
 74
     1
176
     1
 91
        0
176
     1
 64
     7
176
     1
 65
   257
176
     1
 75
     1
176
     1
175
     1
176
     1
 42
1.0
176
     1
 92
        8
176
     1
 66
     8
424
  7895160
176
     1
 43
1.0
176
     1
 76
     1
176
     1
 77
     6
176
     1
 78
     2
176
     1
 67
     7
176
     1
 79
     5
176
     1
170
     0
176
     1
171
     0
176
     1
290
     0
176
     1
 93
       13
176
     1
 44
0.0
176
     1
173
     0
176
     1
  0
VISUALSTYLE
  5
37
102
{ACAD_REACTORS
330
2A
102
}
330
2A
100
AcDbVisualStyle
  2
Thicken
 70
    13
177
     2
291
     1
 71
     2
176
     1
 72
     2
176
     1
 73
     0
176
     1
 90
        0
176
     1
 40
-0.6
176
     1
 41
-30.0
176
     1
 62
     5
 63
     7
421
 16777215
176
     1
 74
     1
176
     1
 91
        4
176
     1
 64
     7
176
     1
 65
   257
176
     1
 75
     1
176
     1
175
     1
176
     1
 42
1.0
176
     1
 92
       12
176
     1
 66
     7
176
     1
 43
1.0
176
     1
 76
     1
176
     1
 77
     6
176
     1
 78
     2
176
     1
 67
     7
176
     1
 79
     5
176
     1
170
     0
176
     1
171
     0
176
     1
290
     0
176
     1
 93
        1
176
     1
 44
0.0
176
     1
173
     0
176
     1
  0
ENDSEC
  0
EOF
