<?xml version="1.0" standalone="no"?>
<!DOCTYPE svg PUBLIC "-//W3C//DTD SVG 20010904//EN"
 "http://www.w3.org/TR/2001/REC-SVG-20010904/DTD/svg10.dtd">
<svg version="1.0" xmlns="http://www.w3.org/2000/svg"
 width="764.000000pt" height="764.000000pt" viewBox="0 0 764.000000 764.000000"
 preserveAspectRatio="xMidYMid meet">
<metadata>
Created by potrace 1.14, written by Peter Selinger 2001-2017
</metadata>
<g transform="translate(0.000000,764.000000) scale(0.100000,-0.100000)"
fill="#000000" stroke="none">
<path d="M2807 7414 c-1 -1 -20 -4 -42 -7 -126 -17 -372 -143 -480 -244 -13
-13 -26 -23 -29 -23 -5 0 -81 -68 -145 -130 -26 -25 -112 -118 -163 -177 -119
-139 -249 -350 -352 -573 -27 -59 -93 -272 -101 -323 -3 -27 -9 -59 -12 -70
-9 -32 -12 -360 -3 -372 3 -5 7 -25 8 -43 1 -17 9 -62 17 -100 9 -37 18 -78
21 -92 27 -135 165 -432 230 -497 8 -8 14 -19 14 -24 0 -19 190 -197 257 -242
102 -67 204 -115 282 -132 11 -3 31 -8 44 -11 41 -11 221 -13 272 -3 28 5 59
11 70 13 74 15 258 97 307 139 14 12 39 31 54 42 46 33 118 106 171 175 131
167 245 419 278 609 3 19 8 38 10 42 3 4 8 29 11 56 3 26 8 66 10 88 18 141
-3 764 -31 915 -3 14 -7 48 -11 75 -3 28 -8 59 -10 70 -3 11 -11 52 -19 90
-19 94 -20 97 -49 200 -15 50 -31 99 -36 110 -5 11 -23 51 -39 89 -88 197
-217 315 -382 346 -45 9 -143 12 -152 4z"/>
<path d="M4666 7408 c-79 -17 -183 -80 -235 -142 -14 -15 -29 -34 -35 -40 -6
-6 -17 -23 -25 -36 -43 -74 -80 -141 -82 -148 -2 -7 -16 -43 -30 -77 -12 -29
-49 -146 -54 -174 -2 -12 -7 -31 -10 -41 -3 -10 -8 -31 -10 -46 -2 -16 -11
-58 -18 -94 -8 -36 -18 -94 -22 -130 -5 -36 -9 -72 -10 -80 -2 -15 -12 -132
-20 -225 -26 -324 -22 -604 11 -780 3 -16 7 -43 10 -60 17 -91 98 -330 116
-341 4 -3 8 -12 8 -19 0 -8 18 -44 40 -80 22 -36 40 -69 40 -74 0 -5 3 -11 8
-13 4 -1 25 -28 47 -58 57 -80 212 -232 276 -269 172 -103 321 -143 499 -136
176 7 302 48 439 143 72 49 229 200 255 244 9 15 22 33 29 40 19 19 98 153
129 218 54 114 109 305 134 465 16 101 9 399 -11 485 -4 14 -9 38 -12 55 -22
127 -135 388 -241 560 -49 81 -148 221 -176 251 -6 7 -27 31 -46 55 -64 79
-234 244 -326 316 -99 77 -254 167 -324 188 -14 4 -29 11 -35 15 -5 5 -23 11
-40 14 -16 3 -47 9 -67 14 -46 12 -160 12 -212 0z"/>
<path d="M660 5214 c-211 -50 -386 -243 -520 -574 -12 -30 -26 -64 -30 -75
-14 -34 -37 -116 -58 -205 -19 -81 -24 -105 -40 -230 -8 -68 -8 -424 1 -464 3
-16 9 -50 13 -75 4 -25 9 -50 12 -56 4 -5 8 -19 9 -30 12 -74 117 -307 183
-406 74 -111 181 -229 280 -309 24 -19 49 -41 56 -47 7 -7 17 -13 22 -13 5 0
17 -9 27 -20 10 -11 24 -20 31 -20 7 0 14 -4 16 -9 5 -12 152 -80 222 -101 98
-30 151 -39 261 -40 280 -4 522 145 658 403 87 165 131 347 130 542 0 118 -13
217 -43 330 -6 22 -12 47 -14 56 -10 41 -78 226 -105 284 -59 130 -148 297
-202 382 -34 54 -66 107 -73 118 -6 11 -16 24 -22 30 -5 5 -22 28 -37 51 -15
22 -36 50 -48 62 -11 12 -18 22 -16 22 7 0 -80 97 -155 171 -101 102 -172 149
-313 209 -59 25 -171 32 -245 14z"/>
<path d="M6818 5219 c-148 -24 -278 -104 -438 -270 -36 -37 -83 -91 -105 -120
-22 -29 -48 -60 -57 -71 -10 -10 -18 -21 -18 -24 0 -3 -11 -20 -25 -38 -14
-18 -25 -38 -25 -44 0 -6 -4 -12 -10 -14 -12 -4 -180 -295 -180 -313 0 -7 -4
-15 -9 -17 -8 -3 -61 -113 -60 -124 0 -4 -3 -10 -8 -13 -10 -6 -70 -151 -97
-231 -22 -66 -46 -164 -52 -213 -3 -23 -8 -53 -11 -67 -9 -39 -8 -309 0 -365
13 -82 30 -148 53 -210 4 -11 8 -26 10 -32 5 -27 85 -165 126 -220 99 -131
247 -240 356 -259 14 -3 31 -9 37 -13 5 -5 17 -9 25 -9 8 -1 60 -4 115 -8 89
-6 153 -1 269 21 70 14 214 79 305 140 136 89 320 276 387 393 10 17 22 32 26
32 4 0 8 7 8 15 0 8 5 15 10 15 6 0 10 9 10 19 0 11 3 21 8 23 17 8 125 265
130 313 1 6 6 33 12 60 21 98 25 143 25 340 0 184 -4 248 -21 330 -3 17 -7 39
-9 50 -2 11 -13 56 -24 100 -12 44 -23 88 -26 98 -17 70 -116 311 -134 327 -3
3 -15 21 -25 40 -98 177 -273 328 -412 355 -56 11 -118 12 -166 4z"/>
<path d="M3777 4245 c-1 -2 -38 -5 -82 -8 -44 -4 -91 -9 -105 -12 -14 -3 -36
-7 -50 -10 -14 -3 -40 -9 -58 -14 -18 -5 -36 -10 -40 -11 -18 -2 -88 -24 -97
-30 -5 -4 -39 -17 -75 -30 -69 -26 -205 -97 -255 -134 -16 -13 -35 -25 -42
-27 -41 -15 -293 -264 -293 -291 0 -4 -4 -8 -10 -8 -5 0 -10 -7 -10 -15 0 -8
-3 -15 -8 -15 -4 0 -16 -17 -27 -37 -11 -20 -25 -41 -30 -47 -6 -6 -37 -54
-70 -106 -32 -52 -81 -125 -107 -163 -26 -37 -48 -71 -48 -76 0 -5 -3 -11 -7
-13 -5 -1 -28 -30 -53 -62 -42 -56 -206 -245 -221 -256 -4 -3 -43 -39 -86 -80
-121 -114 -193 -179 -193 -174 0 3 -6 -1 -13 -8 -8 -7 -42 -37 -76 -67 -112
-98 -281 -283 -281 -309 0 -6 -4 -12 -9 -14 -23 -8 -131 -201 -192 -343 -18
-41 -58 -165 -53 -165 3 0 0 -8 -5 -17 -5 -10 -12 -43 -15 -73 -4 -30 -9 -68
-13 -84 -9 -49 -4 -196 11 -306 7 -51 43 -174 67 -228 39 -88 84 -172 91 -172
5 0 8 -6 8 -14 0 -7 11 -25 24 -39 14 -15 29 -33 33 -41 17 -30 131 -144 188
-187 104 -80 286 -187 308 -181 4 1 7 -3 7 -8 0 -5 3 -9 8 -8 4 1 24 -6 46
-15 21 -9 44 -17 50 -17 7 0 16 -4 22 -9 5 -5 54 -20 109 -34 115 -30 173 -41
265 -53 79 -9 435 -12 481 -4 24 4 64 10 89 13 68 9 154 26 239 49 98 25 94
24 111 31 67 26 251 73 333 84 100 14 372 7 417 -10 15 -6 72 -17 98 -19 6 -1
12 -4 12 -8 0 -3 8 -6 18 -7 9 -1 49 -11 87 -23 93 -29 241 -67 286 -74 20 -3
42 -7 50 -10 13 -5 35 -8 154 -23 69 -9 396 -10 476 -1 36 4 90 13 120 19 30
6 68 13 84 16 17 3 37 9 46 14 9 4 19 6 22 3 3 -3 12 -2 19 2 7 5 20 10 28 12
28 5 35 8 58 20 12 7 22 10 22 8 0 -15 233 98 331 160 104 65 240 194 314 298
34 48 135 228 134 239 0 1 5 16 11 32 19 50 50 177 57 235 9 72 8 233 -1 290
-4 25 -9 54 -11 65 -1 11 -8 40 -15 65 -7 25 -13 50 -15 55 -1 6 -5 17 -8 25
-3 8 -11 33 -18 55 -18 60 -102 237 -138 288 -17 25 -31 50 -31 56 0 6 -4 11
-10 11 -5 0 -10 6 -10 14 0 8 -3 16 -7 18 -5 2 -30 32 -58 68 -77 102 -230
247 -366 350 -68 51 -144 109 -169 128 -64 50 -256 248 -293 302 -17 25 -37
51 -44 58 -21 22 -118 184 -162 272 -55 108 -122 223 -141 240 -3 3 -33 39
-67 80 -33 41 -81 93 -104 116 -54 50 -188 154 -199 154 -5 0 -15 6 -22 13
-28 25 -211 119 -260 132 -5 2 -10 4 -13 5 -3 1 -8 3 -12 5 -5 1 -15 4 -23 8
-23 8 -85 27 -106 31 -10 3 -39 9 -64 15 -74 17 -102 21 -165 26 -77 7 -174
12 -178 10z"/>
</g>
</svg>
