<?xml version="1.0" encoding="UTF-8"?>
<svg xmlns="http://www.w3.org/2000/svg" width="1em" height="1em" viewBox="0 0 764.12 719.53">
  <path d="M265.84,719.41c-34,.45-64.71-6.37-92.81-22.9-29.88-17.58-49.73-42.99-56.41-77.38-5.43-28,.45-54.53,13.27-79.69,11.52-22.6,27.81-41.28,47.33-57.3,22.2-18.23,42.67-38.21,59.42-61.64,9.54-13.35,17.96-27.48,27.12-41.1,18.23-27.09,43.65-44.62,74.28-54.93,19.05-6.42,38.77-8.39,58.64-6.25,26.6,2.86,50.62,12.42,72.48,28.3,13.91,10.1,24.65,22.75,34.17,36.51,6.01,8.69,9.93,18.79,15.18,28.03,14.11,24.8,32.87,45.34,56.29,61.81,29.16,20.51,52.35,46.22,65.53,79.85,13.85,35.34,12.89,69.95-6.9,103.05-12.22,20.44-29.91,35.05-51.05,45.57-24.86,12.37-51.25,17.83-79,18.19-27.65,.36-54.2-4.74-80.32-13.28-28.48-9.31-56.95-8.6-85.29,.95-23.82,8.02-48.2,12.79-71.92,12.23ZM351.17,105.32c-.85-7.77-1.82-15.55-3.31-23.21-3.64-18.8-8.08-37.34-17.65-54.29-13.67-24.22-34.45-32.86-60.99-24.91-19.25,5.77-35.29,17.02-49.96,30.21-20.19,18.14-36.93,39.17-50.01,63.01-9.56,17.42-17.01,35.66-20.41,55.35-3.72,21.52-1.94,42.81,3.51,63.8,7.91,30.46,22.38,57.02,48.44,75.75,24.18,17.39,50.8,21.75,78.96,11.2,27.74-10.4,45.67-31.36,58.35-57.24,12.95-26.43,17.29-54.66,16.49-83.86-.9-18.61-1.38-37.26-3.41-55.81Zm62.2,101.59c5.07,24.42,14.59,46.91,30.92,66.12,15.14,17.8,33.62,30.44,57.09,33.72,34.17,4.78,61.22-9.2,82.51-34.78,18.3-21.99,27.76-47.96,31.83-76.3,4.42-30.77-1.22-59.49-14.44-87.17-12.61-26.4-29.49-49.71-50.55-69.98-16.7-16.07-35.01-29.7-57.71-36.25-20.53-5.92-40.96-.36-53.83,17.74-10.16,14.28-15.66,30.33-19.67,47.02-7.43,30.94-8.67,62.56-9.67,94.18-.74,15.39,.41,30.67,3.53,45.7Zm345.46,97.93c-5.82-24-14.56-46.72-31.07-65.59-12.8-14.63-28.46-23.15-48.59-18.95-13.42,2.8-24.3,10.6-34.15,19.73-17.64,16.35-31.04,35.98-42.59,56.87-14.18,25.63-27.28,51.62-30.4,81.54-2.88,27.6,.98,53.56,16.68,76.78,16.96,25.09,41.42,35.52,71.13,32.15,24.18-2.75,44.49-14.61,61.46-31.62,28.83-28.89,44.2-63.57,42.74-106.05,.59-14.46-1.54-29.76-5.2-44.86ZM180.37,447.45c16.45-32.19,16.51-65.7,5.14-99.14-12.36-36.35-31.3-69.3-56.46-98.4-9.95-11.51-21.52-21.38-35.95-27.1-13.02-5.16-25.84-4.97-38.47,1.77-15.4,8.21-25.11,21.57-32.93,36.41C6.76,289.33,.14,319.72,0,351.7c-.06,13.25,.97,26.34,4.48,39.03,8.07,29.17,23.84,53.6,47.3,72.79,18.1,14.8,38.49,24.14,62.35,24.37,28.45,.54,53.47-15.47,66.23-40.45Z"/>
</svg>